<svg width="26" height="38" viewBox="0 0 26 38" fill="none" xmlns="http://www.w3.org/2000/svg">
<rect width="26" height="38" rx="13" fill="#B00E2F"/>
<g clip-path="url(#clip0_1994_2)">
<path d="M18.7215 7.23294C18.0122 6.5106 17.1677 5.94751 16.2403 5.57862C15.2781 5.19085 14.2543 4.99461 13.2223 5.00011H12.7765C11.7444 4.99461 10.7206 5.19085 9.75835 5.57862C8.83102 5.94751 7.98649 6.5106 7.27717 7.23294C6.55102 7.98942 5.98372 8.89429 5.61111 9.89034C5.18813 11.0322 4.98043 12.2479 4.99935 13.4713V24.5593C4.98122 25.781 5.1889 26.995 5.61111 28.1353C5.98371 29.1308 6.55103 30.0351 7.27717 30.791C7.98642 31.5138 8.83094 32.0775 9.75835 32.447C10.5305 32.7567 11.3436 32.9421 12.1696 32.9967V28.2604C12.1419 28.2604 12.1175 28.2604 12.0915 28.2469C11.7649 28.1577 11.4658 27.983 11.2227 27.7394C10.9178 27.4356 10.6777 27.0685 10.5182 26.6619C10.2939 26.0728 10.1684 25.448 10.1472 24.8148V13.2007C10.1682 12.5674 10.2937 11.9426 10.5182 11.3535C10.6777 10.9465 10.9178 10.5788 11.2227 10.2743C11.4662 10.0313 11.7652 9.85673 12.0915 9.76686C12.6877 9.61346 13.311 9.61346 13.9072 9.76686C14.2334 9.85714 14.5322 10.0317 14.776 10.2743C15.0804 10.5793 15.3204 10.9468 15.4805 11.3535C15.7044 11.9427 15.8293 12.5675 15.8499 13.2007V24.83C15.8291 25.4631 15.7042 26.0879 15.4805 26.6772C15.3204 27.0834 15.0804 27.4504 14.776 27.7547C14.5327 27.9979 14.2336 28.1725 13.9072 28.2621C13.8812 28.2621 13.8552 28.2706 13.8308 28.2756V33.012C14.6561 32.957 15.4687 32.7716 16.2403 32.4622C17.1678 32.0927 18.0123 31.529 18.7215 30.8062C19.4494 30.0459 20.0168 29.1363 20.3876 28.1353C20.8104 26.9934 21.0181 25.7777 20.9993 24.5543V13.4713C21.0183 12.2479 20.8106 11.0322 20.3876 9.89034C20.015 8.89429 19.4477 7.98942 18.7215 7.23294V7.23294Z" fill="#FFE6CB"/>
</g>
<defs>
<clipPath id="clip0_1994_2">
<rect width="16" height="28" fill="white" transform="translate(5 5)"/>
</clipPath>
</defs>
</svg>